<svg width="60" height="60" viewBox="0 0 60 60" fill="none" xmlns="http://www.w3.org/2000/svg">
<g clip-path="url(#clip0)">
<path d="M22.4993 28.7508C15.607 28.7508 9.99954 23.1438 9.99954 16.2515C9.99954 9.35917 15.607 3.75174 22.4993 3.75174C29.3916 3.75174 34.9991 9.35917 34.9991 16.2515C34.9991 23.1438 29.3916 28.7508 22.4993 28.7508ZM22.4993 7.50162C17.6746 7.50162 13.7494 11.4264 13.7494 16.2515C13.7494 21.0762 17.6746 25.0009 22.4993 25.0009C27.324 25.0009 31.2492 21.0762 31.2492 16.2515C31.2492 11.4264 27.324 7.50162 22.4993 7.50162Z" fill="#4FD890"/>
<path d="M43.1237 56.2501H1.87494C0.83997 56.2501 0 55.4101 0 54.3751V45.6253C0 39.0781 5.32729 33.7508 11.8745 33.7508H33.1241C39.6713 33.7508 44.9986 39.0781 44.9986 45.6253V54.3751C44.9986 55.4101 44.1586 56.2501 43.1237 56.2501ZM3.74988 52.5002H41.2487V45.6253C41.2487 41.1457 37.6037 37.5007 33.1241 37.5007H11.8745C7.39494 37.5007 3.74988 41.1457 3.74988 45.6253V52.5002Z" fill="#4FD890"/>
<path d="M58.1232 29.3761H36.874C35.8391 29.3761 34.9991 28.5361 34.9991 27.5011C34.9991 26.4662 35.8391 25.6262 36.874 25.6262H58.1232C59.1582 25.6262 59.9981 26.4662 59.9981 27.5011C59.9981 28.5361 59.1582 29.3761 58.1232 29.3761Z" fill="#4FD890"/>
<path d="M48.1236 39.3756C47.6435 39.3756 47.1637 39.193 46.7984 38.8259C46.066 38.093 46.066 36.9056 46.7984 36.1732L55.4733 27.4984L46.7984 18.8236C46.066 18.0912 46.066 16.9038 46.7984 16.1714C47.5308 15.439 48.7182 15.439 49.4511 16.1714L59.4506 26.1709C60.183 26.9033 60.183 28.0912 59.4506 28.8236L49.4511 38.8231C49.0835 39.193 48.6034 39.3756 48.1236 39.3756Z" fill="#4FD890"/>
</g>
<defs>
<clipPath id="clip0">
<rect width="60" height="60" fill="white"/>
</clipPath>
</defs>
</svg>
