<svg width="50" height="42" viewBox="0 0 50 42" fill="none" xmlns="http://www.w3.org/2000/svg">
<path d="M49.0225 8.53458L25.4874 0.230774C25.1721 0.119446 24.828 0.119446 24.5127 0.230774L0.977525 8.53458C0.392369 8.74103 0.000767162 9.29376 -1.40882e-05 9.91427C-0.000795338 10.5348 0.389537 11.0884 0.974205 11.2962L24.5094 19.6631C24.668 19.7195 24.8341 19.7478 25 19.7478C25.166 19.7478 25.3319 19.7195 25.4906 19.6631L49.0258 11.2962C49.6104 11.0884 50.0007 10.5348 50 9.91427C49.9992 9.29376 49.6076 8.74103 49.0225 8.53458Z" fill="#5323A5"/>
<path d="M46.4817 28.0873V15.3099L43.552 16.3514V28.0873C42.6696 28.5952 42.075 29.5469 42.075 30.6382C42.075 31.7294 42.6696 32.6811 43.552 33.189V40.3879C43.552 41.1969 44.2079 41.8527 45.0169 41.8527C45.8259 41.8527 46.4817 41.1969 46.4817 40.3879V33.1891C47.3642 32.6813 47.9588 31.7295 47.9588 30.6383C47.9588 29.547 47.3643 28.5952 46.4817 28.0873Z" fill="#5323A5"/>
<path d="M25 22.6774C24.4972 22.6774 24.002 22.592 23.528 22.4235L10.2973 17.7199V24.166C10.2973 25.7431 11.9425 27.0768 15.1872 28.1299C18.0154 29.0478 21.5004 29.5534 25 29.5534C28.4996 29.5534 31.9845 29.0478 34.8128 28.1299C38.0575 27.0768 39.7027 25.7431 39.7027 24.166V17.7199L26.4721 22.4235C25.9981 22.592 25.5028 22.6774 25 22.6774Z" fill="#5323A5"/>
</svg>
