<svg width="60" height="60" viewBox="0 0 60 60" fill="none" xmlns="http://www.w3.org/2000/svg">
<g clip-path="url(#clip0)">
<path d="M59 53.278V30C58.9972 29.8453 58.9578 29.6935 58.885 29.557H58.895L56.447 24.662C55.943 23.6415 54.9022 22.9968 53.764 23H47V22C46.9999 21.7348 46.8946 21.4805 46.707 21.293L41.293 15.879C40.9331 15.5229 40.488 15.265 40 15.13V8.38501L42 7.84801V10.27V10.277C41.9989 11.3039 42.5121 12.2631 43.367 12.832C43.6642 13.0303 44.0447 13.0549 44.365 12.8967C44.6854 12.7384 44.8969 12.4212 44.92 12.0647C44.9431 11.7081 44.7742 11.3663 44.477 11.168C44.1786 10.9698 43.9995 10.6352 44 10.277V10.27V7.22301C44.7 6.81871 45.0878 6.03278 44.9827 5.23128C44.8777 4.42978 44.3005 3.77031 43.52 3.56001L30.514 0.0680103C30.1772 -0.0219784 29.8228 -0.0219784 29.486 0.0680103L16.48 3.56001C15.6053 3.7988 14.9986 4.59335 14.9986 5.50001C14.9986 6.40667 15.6053 7.20122 16.48 7.44001L20 8.38501V15H19.937C19.048 15.0004 18.2051 15.3962 17.637 16.08L13.237 21.36C13.0854 21.5389 13.0015 21.7655 13 22V23H6.236C5.09873 22.996 4.05815 23.6391 3.553 24.658L1.105 29.553H1.115C1.04155 29.6907 1.00212 29.844 1 30V53.278C0.383249 53.6324 0.002145 54.2887 0 55V57C0 58.1046 0.89543 59 2 59H15.278C15.6324 59.6168 16.2887 59.9979 17 60H43C43.7113 59.9979 44.3676 59.6168 44.722 59H58C59.1046 59 60 58.1046 60 57V55C59.9979 54.2887 59.6168 53.6324 59 53.278ZM44 53H43V31H57V53H44ZM33 53H27V42H33V53ZM34 40H26C25.4477 40 25 40.4477 25 41V53H19V31H41V53H35V41C35 40.4477 34.5523 40 34 40ZM45 23V25H15V23H45ZM43 27V29H17V27H43ZM53.764 25C54.1431 24.9988 54.4898 25.2133 54.658 25.553L56.382 29H45V27C46.1046 27 47 26.1046 47 25H53.764ZM30 2.00001L43.014 5.50001H43.001L30.005 9.00001L17 5.49201L30 2.00001ZM22 8.92201L29.486 10.932C29.8227 11.0227 30.1773 11.0227 30.514 10.932L38 8.92201V15H22V8.92201ZM19.169 17.36C19.3589 17.132 19.6403 17.0001 19.937 17H39.171C39.4365 16.9998 39.6913 17.1052 39.879 17.293L43.586 21H16.135L19.169 17.36ZM5.342 25.553C5.51018 25.2133 5.85693 24.9988 6.236 25H13C13 26.1046 13.8954 27 15 27V29H3.618L5.342 25.553ZM2 55H15V57H2V55ZM16 53H3V31H17V53H16ZM17 58V55H43V58H17ZM58 57H45V55H58V57Z" fill="#F88C5A"/>
<path d="M27 33C26.4477 33 26 33.4477 26 34V36C26 36.5523 26.4477 37 27 37C27.5523 37 28 36.5523 28 36V34C28 33.4477 27.5523 33 27 33Z" fill="#F88C5A"/>
<path d="M13 34C12.4477 34 12 34.4477 12 35V37C12 37.5523 12.4477 38 13 38C13.5523 38 14 37.5523 14 37V35C14 34.4477 13.5523 34 13 34Z" fill="#F88C5A"/>
<path d="M7 34C6.44772 34 6 34.4477 6 35V37C6 37.5523 6.44772 38 7 38C7.55229 38 8 37.5523 8 37V35C8 34.4477 7.55229 34 7 34Z" fill="#F88C5A"/>
<path d="M13 40C12.4477 40 12 40.4477 12 41V43C12 43.5523 12.4477 44 13 44C13.5523 44 14 43.5523 14 43V41C14 40.4477 13.5523 40 13 40Z" fill="#F88C5A"/>
<path d="M7 40C6.44772 40 6 40.4477 6 41V43C6 43.5523 6.44772 44 7 44C7.55229 44 8 43.5523 8 43V41C8 40.4477 7.55229 40 7 40Z" fill="#F88C5A"/>
<path d="M13 46C12.4477 46 12 46.4477 12 47V49C12 49.5523 12.4477 50 13 50C13.5523 50 14 49.5523 14 49V47C14 46.4477 13.5523 46 13 46Z" fill="#F88C5A"/>
<path d="M7 46C6.44772 46 6 46.4477 6 47V49C6 49.5523 6.44772 50 7 50C7.55229 50 8 49.5523 8 49V47C8 46.4477 7.55229 46 7 46Z" fill="#F88C5A"/>
<path d="M53 34C52.4477 34 52 34.4477 52 35V37C52 37.5523 52.4477 38 53 38C53.5523 38 54 37.5523 54 37V35C54 34.4477 53.5523 34 53 34Z" fill="#F88C5A"/>
<path d="M47 34C46.4477 34 46 34.4477 46 35V37C46 37.5523 46.4477 38 47 38C47.5523 38 48 37.5523 48 37V35C48 34.4477 47.5523 34 47 34Z" fill="#F88C5A"/>
<path d="M53 40C52.4477 40 52 40.4477 52 41V43C52 43.5523 52.4477 44 53 44C53.5523 44 54 43.5523 54 43V41C54 40.4477 53.5523 40 53 40Z" fill="#F88C5A"/>
<path d="M47 40C46.4477 40 46 40.4477 46 41V43C46 43.5523 46.4477 44 47 44C47.5523 44 48 43.5523 48 43V41C48 40.4477 47.5523 40 47 40Z" fill="#F88C5A"/>
<path d="M53 46C52.4477 46 52 46.4477 52 47V49C52 49.5523 52.4477 50 53 50C53.5523 50 54 49.5523 54 49V47C54 46.4477 53.5523 46 53 46Z" fill="#F88C5A"/>
<path d="M47 46C46.4477 46 46 46.4477 46 47V49C46 49.5523 46.4477 50 47 50C47.5523 50 48 49.5523 48 49V47C48 46.4477 47.5523 46 47 46Z" fill="#F88C5A"/>
<path d="M33 33C32.4477 33 32 33.4477 32 34V36C32 36.5523 32.4477 37 33 37C33.5523 37 34 36.5523 34 36V34C34 33.4477 33.5523 33 33 33Z" fill="#F88C5A"/>
</g>
<defs>
<clipPath id="clip0">
<rect width="60" height="60" fill="white"/>
</clipPath>
</defs>
</svg>
