<svg width="60" height="60" viewBox="0 0 60 60" fill="none" xmlns="http://www.w3.org/2000/svg">
<g clip-path="url(#clip0)">
<path d="M40.0195 57.6562C39.7115 57.6562 39.4089 57.7817 39.191 57.9996C38.9731 58.2179 38.8477 58.5201 38.8477 58.8281C38.8477 59.1362 38.9731 59.4388 39.191 59.6567C39.4089 59.8746 39.7115 60 40.0195 60C40.3276 60 40.6302 59.8746 40.8481 59.6567C41.066 59.4388 41.1914 59.1362 41.1914 58.8281C41.1914 58.5201 41.066 58.2175 40.8481 57.9996C40.6302 57.7817 40.3276 57.6562 40.0195 57.6562Z" fill="#5898E7"/>
<path d="M6.5625 15.3799V20.6914C6.5625 21.3387 7.0871 21.8633 7.73438 21.8633C8.38165 21.8633 8.90625 21.3387 8.90625 20.6914V15.3799C12.6169 14.8137 15.4688 11.6011 15.4688 7.73438C15.4688 3.46939 11.9994 0 7.73438 0C3.46939 0 0 3.46939 0 7.73438C0 11.6011 2.85187 14.8137 6.5625 15.3799ZM7.73438 2.34375C10.7066 2.34375 13.125 4.76212 13.125 7.73438C13.125 10.7066 10.7066 13.125 7.73438 13.125C4.76212 13.125 2.34375 10.7066 2.34375 7.73438C2.34375 4.76212 4.76212 2.34375 7.73438 2.34375Z" fill="#5898E7"/>
<path d="M9.83325 7.04865C10.1413 7.04865 10.4439 6.92368 10.6618 6.70532C10.8797 6.48651 11.0051 6.1853 11.0051 5.87677C11.0051 5.5687 10.8797 5.26657 10.6618 5.04868C10.4439 4.82941 10.1413 4.7049 9.83325 4.7049C9.52518 4.7049 9.2226 4.82941 9.0047 5.04868C8.7868 5.26657 8.66138 5.56778 8.66138 5.87677C8.66138 6.1853 8.7868 6.48743 9.0047 6.70532C9.2226 6.92368 9.52518 7.04865 9.83325 7.04865Z" fill="#5898E7"/>
<path d="M4.92731 7.93579C5.15619 8.16467 5.45602 8.27911 5.75586 8.27911C6.05569 8.27911 6.35553 8.16467 6.58441 7.93579C7.04218 7.47803 7.04218 6.73599 6.58441 6.27823L6.05386 5.74768C5.5961 5.28992 4.85406 5.28992 4.3963 5.74768C3.93854 6.20544 3.93854 6.94748 4.3963 7.40479L4.92731 7.93579Z" fill="#5898E7"/>
<path d="M7.2674 11.1447C7.49628 11.3736 7.79611 11.488 8.09641 11.488C8.39624 11.488 8.69608 11.3736 8.92496 11.1447L9.62442 10.4448C10.0822 9.98749 10.0822 9.24545 9.62442 8.78769C9.16666 8.32993 8.42508 8.32993 7.96732 8.78769L7.2674 9.48715C6.80963 9.94492 6.80963 10.687 7.2674 11.1447Z" fill="#5898E7"/>
<path d="M25.1414 10.6325C21.84 10.6325 19.1538 13.3182 19.1538 16.6196C19.1538 17.2668 19.6789 17.7914 20.3257 17.7914C20.973 17.7914 21.4976 17.2668 21.4976 16.6196C21.4976 14.6104 23.1322 12.9762 25.1414 12.9762C25.7882 12.9762 26.3132 12.4516 26.3132 11.8044C26.3132 11.1571 25.7886 10.6325 25.1414 10.6325Z" fill="#5898E7"/>
<path d="M57.6494 19.7745L59.843 15.975C60.0522 15.6125 60.0522 15.1657 59.843 14.8032L57.3116 10.4183C57.1019 10.0557 56.7151 9.83231 56.2967 9.83231H51.7955L49.6019 6.03287C49.2787 5.47257 48.5619 5.28077 48.0011 5.60395C47.4408 5.92759 47.2485 6.64445 47.5722 7.20475L49.7658 11.0042L47.9109 14.2172H44.2003L42.3454 11.0042L44.5386 7.20475C44.8622 6.64445 44.6704 5.92759 44.1096 5.60395C43.5493 5.28031 42.8325 5.47257 42.5089 6.03287L40.3157 9.83231H37.3297V7.50001C37.3297 6.85273 36.8047 6.32813 36.1578 6.32813H25.1413C19.4669 6.32813 14.8499 10.9447 14.8499 16.6196V26.6002C14.8499 29.3985 16.1206 31.9043 18.1137 33.5747C14.5129 33.9235 10.9662 34.6898 7.52472 35.8695C3.02399 37.4126 0 41.6455 0 46.4035V58.8281C0 59.4754 0.524597 60 1.17188 60H35.0391C35.6863 60 36.2109 59.4754 36.2109 58.8281C36.2109 58.1809 35.6863 57.6563 35.0391 57.6563H30.9668L39.765 47.0774C40.0557 46.7276 40.118 46.2419 39.9252 45.8304C39.7321 45.4184 39.3187 45.1561 38.8641 45.1561H35.929L39.4762 37.9202L40.3528 38.1981C44.0213 39.3617 46.4859 42.7295 46.4859 46.5784V57.6563H44.4919C43.8451 57.6563 43.32 58.1809 43.32 58.8281C43.32 59.4754 43.8451 60 44.4919 60H47.6578C48.3046 60 48.8297 59.4754 48.8297 58.8281V46.5784C48.8297 41.7037 45.7077 37.4382 41.0614 35.9638L39.7449 35.5463C36.7744 34.6042 33.7285 33.9665 30.6432 33.636C32.6788 31.9661 33.9798 29.4324 33.9798 26.6002V18.9876C33.9798 18.8489 33.9542 18.7161 33.9098 18.5925C35.9125 17.141 37.2386 14.8132 37.3224 12.1761H40.3152L42.5089 15.975C42.718 16.3376 43.1049 16.561 43.5237 16.561H48.587C49.0054 16.561 49.3927 16.3376 49.6019 15.975L51.7955 12.1761H55.6197L57.475 15.3891L55.6197 18.6026H51.2329C50.8141 18.6026 50.4272 18.826 50.218 19.1885L48.0244 22.9875H44.3143L42.1207 19.1885C41.797 18.6278 41.0806 18.436 40.5199 18.7596C39.9591 19.0833 39.7673 19.7997 40.0909 20.3604L42.2273 24.061L39.977 27.9588C39.7678 28.3214 39.7678 28.7682 39.977 29.1307L42.5089 33.5156C42.718 33.8782 43.1049 34.1016 43.5237 34.1016H48.587C48.9977 34.1016 49.3781 33.8869 49.5905 33.5353L51.8944 29.7167H56.2962C56.7151 29.7167 57.1019 29.4933 57.3111 29.1307L59.843 24.7453C60.0522 24.3828 60.0522 23.936 59.843 23.5735L57.6494 19.7745ZM22.6973 57.6563L21.6925 53.3693L24.4061 44.5519L27.1111 53.481L26.1324 57.6563H22.6973ZM15.8006 45.7402L11.5663 37.1031C12.7959 36.7854 14.0369 36.5199 15.287 36.3098L20.0459 56.6162L12.4049 47.428H14.7482C15.1529 47.428 15.5287 47.2193 15.7425 46.8764C15.9567 46.5331 15.9787 46.1037 15.8006 45.7402ZM18.3206 38.9813L19.1364 39.8017C19.3561 40.0223 19.6545 40.1463 19.9658 40.1468H19.9672C20.278 40.1468 20.576 40.0232 20.7957 39.8035L21.4156 39.1837L23.0905 40.8586L20.6323 48.8457L18.3206 38.9813ZM24.4286 38.882L23.0727 37.5266L24.4148 36.1844L25.7703 37.5403L24.4286 38.882ZM19.969 37.3155L18.5486 35.8882C19.5525 35.7958 20.56 35.7367 21.5717 35.7129L19.969 37.3155ZM28.1795 48.9231L25.7433 40.882L27.4278 39.1974L28.0339 39.8035C28.2536 40.0232 28.5516 40.1468 28.8625 40.1468H28.8638C29.1751 40.1463 29.4736 40.0223 29.6933 39.8017L30.5095 38.9818L28.1795 48.9231ZM28.8606 37.3155L27.2878 35.7427C28.2687 35.7784 29.247 35.8475 30.2216 35.9482L28.8606 37.3155ZM2.34375 46.4035C2.34375 42.6471 4.73099 39.305 8.28461 38.0869C8.61465 37.9733 8.94608 37.8653 9.27795 37.76L12.8687 45.0842H9.90601C9.45145 45.0842 9.03763 45.347 8.84491 45.7585C8.65173 46.1701 8.71399 46.6562 9.00467 47.0055L17.8629 57.6563H2.34375V46.4035ZM33.0551 46.9478C33.2693 47.2911 33.6452 47.4999 34.0494 47.4999H36.3652L28.7837 56.6162L33.5179 36.4147C34.7548 36.6376 35.9825 36.9136 37.1983 37.2423L32.997 45.8121C32.8194 46.1751 32.8409 46.6045 33.0551 46.9478ZM24.8808 33.3554H23.9484C20.4684 33.3554 17.5955 30.71 17.233 27.3248H22.131C22.4419 27.3248 22.7399 27.2017 22.9596 26.982L24.4148 25.5267L25.8701 26.982C26.0898 27.2017 26.3878 27.3248 26.6986 27.3248H31.5967C31.2337 30.71 28.3612 33.3554 24.8808 33.3554ZM31.636 20.1595V24.9811H27.1843L25.2434 23.0402C25.0237 22.8204 24.7256 22.6973 24.4148 22.6973C24.104 22.6973 23.806 22.8204 23.5863 23.0402L21.6454 24.9811H17.1936V20.1595H31.636ZM34.9855 11.9119C34.9855 15.1676 32.3369 17.8157 29.0817 17.8157H17.1936V16.6196C17.1936 12.2374 20.7587 8.67188 25.1413 8.67188H34.9855V11.9119ZM47.9256 31.7578H44.2003L42.345 28.5448L44.2003 25.3313H48.0244L49.872 28.5315L47.9256 31.7578ZM55.6197 27.3729H51.9095L50.0542 24.1594L51.9095 20.9464H55.6197L57.475 24.1594L55.6197 27.3729Z" fill="#5898E7"/>
</g>
<defs>
<clipPath id="clip0">
<rect width="60" height="60" fill="white"/>
</clipPath>
</defs>
</svg>
