<svg width="50" height="50" viewBox="0 0 50 50" fill="none" xmlns="http://www.w3.org/2000/svg">
<path d="M29.2023 9.80626C28.5781 9.21173 27.5883 9.23516 26.9937 9.86016C26.3984 10.4852 26.4234 11.4742 27.0477 12.0695L39.0336 23.4375H7.8125C6.95 23.4375 6.25 24.1375 6.25 25C6.25 25.8625 6.95 26.5625 7.8125 26.5625H38.9836L27.0477 37.9313C26.4227 38.5266 26.3984 39.5156 26.9937 40.1406C27.3008 40.4625 27.7125 40.625 28.125 40.625C28.5125 40.625 28.9 40.482 29.2023 40.1938L42.8344 27.2094C43.425 26.6195 43.75 25.8352 43.75 25C43.75 24.1649 43.425 23.3805 42.807 22.7641L29.2023 9.80626Z" fill="#7E84A6"/>
</svg>
